#define iconify_hover_width 13
#define iconify_hover_height 13
static unsigned char iconify_hover_bits[] = {
   0x00, 0x00, 0xf8, 0x03, 0xfc, 0x07, 0xfe, 0x0f, 0xfe, 0x0f, 0xfe, 0x0f,
   0xfe, 0x0f, 0xfe, 0x0f, 0xfe, 0x0f, 0xfe, 0x0f, 0xfc, 0x07, 0xf8, 0x03,
   0x00, 0x00 };
