#define max_toggled_width 11
#define max_toggled_height 11
static unsigned char max_toggled_bits[] = {
   0x00, 0x00, 0xf8, 0x00, 0xfc, 0x01, 0xfe, 0x03, 0xfe, 0x03, 0xfe, 0x03,
   0xfe, 0x03, 0xfe, 0x03, 0xfc, 0x01, 0xf8, 0x00, 0x00, 0x00 };
